<?xml version="1.0" encoding="UTF-8"?>
<svg width="32px" height="32px" viewBox="0 0 32 32" version="1.1" xmlns="http://www.w3.org/2000/svg" xmlns:xlink="http://www.w3.org/1999/xlink">
    <!-- Generator: sketchtool 52.5 (67469) - http://www.bohemiancoding.com/sketch -->
    <title>3B72F984-670F-4A6E-9C61-A5768562624F</title>
    <desc>Created with sketchtool.</desc>
    <g id="Home-page---desktop" stroke="none" stroke-width="1" fill="none" fill-rule="evenodd">
        <g id="Desktop---home-page" transform="translate(-1075.000000, -2191.000000)">
            <g id="Group-7-Copy" transform="translate(1076.000000, 2192.000000)">
                <g id="vegan-icon">
                    <g id="Group-5" transform="translate(14.475980, 15.097018) rotate(-29.000000) translate(-14.475980, -15.097018) translate(7.975980, 3.597018)">
                        <path d="M6.1099326,18.3721639 L4.64217106,7.10670098 L6.60514135,18.3051714 C6.62800813,18.4331271 6.53582641,18.5537136 6.39934031,18.5751512 C6.26285421,18.5959189 6.13422856,18.5094986 6.11136178,18.3822128 C6.11064719,18.3788631 6.1099326,18.3748436 6.1099326,18.3721639" id="Fill-1" fill="#010202"></path>
                        <path d="M6.32416577,18.0773968 C6.42277876,18.6696107 4.72349105,22.4446394 4.72349105,22.4446394 C4.72349105,22.4446394 8.1863793,21.2454733 10.5237931,18.1671668 C12.8604924,15.0888603 12.4503195,14.2769109 12.8211901,12.2611058 C13.1920607,10.2459707 11.9972714,6.71948419 11.0976064,5.43456757 C10.4487615,4.50806095 8.14850619,1.94425704 6.89654989,0.565550891 C6.44564554,0.0698062105 5.64745195,0.0322903968 5.14223899,0.479130535 C2.79339176,2.55656872 1.08695818,5.22555089 0.430967376,8.1899701 C0.0422320874,9.94785394 0.0222236534,11.8001972 0.952615833,13.2291478 C0.952615833,13.2291478 3.18569998,16.4380897 5.44022174,17.1890759 C7.69402891,17.9400621 5.18868714,21.5737366 5.18868714,21.5737366" id="Stroke-3" stroke="#010202" stroke-width="0.5" stroke-linecap="round" stroke-linejoin="round"></path>
                    </g>
                    <polygon id="Star" stroke="#000000" stroke-width="0.5" points="15 29.5790318 13.1919498 29.8906331 11.5110093 29.1553916 9.68092669 29.0252436 8.22478609 27.9090916 6.4790288 27.344758 5.33231367 25.912562 3.77233878 24.9468399 3.00169204 23.281834 1.71815962 21.9708476 1.36836846 20.1697959 0.435872739 18.589735 0.527265748 16.7573081 0 15 0.527265748 13.2426919 0.435872739 11.410265 1.36836846 9.83020407 1.71815962 8.02915242 3.00169204 6.71816599 3.77233878 5.05316013 5.33231367 4.08743799 6.4790288 2.65524201 8.22478609 2.09090844 9.68092669 0.97475636 11.5110093 0.84460836 13.1919498 0.109366889 15 0.420968192 16.8080502 0.109366889 18.4889907 0.84460836 20.3190733 0.97475636 21.7752139 2.09090844 23.5209712 2.65524201 24.6676863 4.08743799 26.2276612 5.05316013 26.998308 6.71816599 28.2818404 8.02915242 28.6316315 9.83020407 29.5641273 11.410265 29.4727343 13.2426919 30 15 29.4727343 16.7573081 29.5641273 18.589735 28.6316315 20.1697959 28.2818404 21.9708476 26.998308 23.281834 26.2276612 24.9468399 24.6676863 25.912562 23.5209712 27.344758 21.7752139 27.9090916 20.3190733 29.0252436 18.4889907 29.1553916 16.8080502 29.8906331"></polygon>
                </g>
            </g>
        </g>
    </g>
</svg>